<!-- icon666.com - MILLIONS vector ICONS FREE --><svg version="1.1" id="Capa_1" xmlns="http://www.w3.org/2000/svg" xmlns:xlink="http://www.w3.org/1999/xlink" x="0px" y="0px" viewBox="0 0 166.943 166.943" style="enable-background:new 0 0 166.943 166.943;" xml:space="preserve"><g><circle style="fill: rgb(140, 0, 255);" cx="83.471" cy="83.472" r="83.471" fill="#9DE7F9"></circle><g><circle cx="128.037" cy="53.841" r="13.078" fill="#000000"></circle><circle cx="39.926" cy="53.61" r="13.078" fill="#000000"></circle><ellipse style="" cx="83.886" cy="86.405" rx="58.552" ry="47.797" fill="#FFFFFF"></ellipse><path d="M41.11,119.038c0,0,11.556-5.799,13.032-15.83c1.477-10.031-6.853-20.085-11.315-21.396 c-4.463-1.311-16.36-5.105-17.407,2.001C24.372,90.92,27.423,109.828,41.11,119.038z" fill="#000000"></path><path d="M126.644,119.038c0,0-11.557-5.799-13.033-15.83c-1.476-10.031,6.853-20.085,11.316-21.396 c4.462-1.311,16.36-5.105,17.407,2.001C143.381,90.92,140.33,109.828,126.644,119.038z" fill="#000000"></path><path d="M95.771,105.91c0,2.447-5.325,9.736-11.894,9.736c-6.57,0-11.895-7.289-11.895-9.736c0-2.447,5.325-4.431,11.895-4.431 C90.446,101.479,95.771,103.463,95.771,105.91z" fill="#000000"></path><circle style="" cx="44.853" cy="98.656" r="4.933" fill="#FEFEFD"></circle><circle style="" cx="125.099" cy="98.656" r="4.933" fill="#FEFEFD"></circle><circle style="" cx="105.203" cy="99.651" r="4.932" fill="#FEFEFD"></circle></g></g></svg>